<svg xmlns="http://www.w3.org/2000/svg" viewBox="0 0 256 256">
  <rect width="256" height="256" rx="48" fill="#4F46E5"/>
  
  <rect x="50" y="70" width="50" height="116" rx="8" fill="#ffffff"/>
  <rect x="156" y="70" width="50" height="116" rx="8" fill="#ffffff"/>
  
  <polygon points="100,100 156,75 156,95 100,120" fill="#ffffff"/>
  <polygon points="100,156 156,181 156,161 100,136" fill="#ffffff"/>
  
  <circle cx="75" cy="55" r="14" fill="#ffffff"/>
  <circle cx="181" cy="55" r="14" fill="#ffffff"/>
  <circle cx="75" cy="201" r="14" fill="#ffffff"/>
  <circle cx="181" cy="201" r="14" fill="#ffffff"/>
  
  <circle cx="128" cy="128" r="18" fill="#A5B4FC"/>
  <rect x="125" y="105" width="6" height="20" rx="3" fill="#A5B4FC"/>
  <rect x="125" y="131" width="6" height="20" rx="3" fill="#A5B4FC"/>
  <rect x="105" y="125" width="20" height="6" rx="3" fill="#A5B4FC"/>
  <rect x="131" y="125" width="20" height="6" rx="3" fill="#A5B4FC"/>
</svg>
